<?xml version="1.0" standalone="no"?>
<!DOCTYPE svg PUBLIC "-//W3C//DTD SVG 20010904//EN"
 "http://www.w3.org/TR/2001/REC-SVG-20010904/DTD/svg10.dtd">
<svg version="1.0" xmlns="http://www.w3.org/2000/svg"
 width="674.000000pt" height="674.000000pt" viewBox="0 0 674.000000 674.000000"
 preserveAspectRatio="xMidYMid meet"> 

<g transform="translate(0.000000,674.000000) scale(0.100000,-0.100000)"
fill="#ffffff"  stroke="none" >
<path d="M3115 6730 c-175 -15 -447 -58 -441 -69 2 -3 -15 -7 -38 -7 -57 -3
-332 -84 -490 -146 -153 -61 -435 -201 -556 -278 -677 -431 -1160 -1042 -1411
-1789 -125 -368 -174 -680 -173 -1081 2 -541 107 -991 345 -1475 337 -687 881
-1225 1573 -1555 663 -316 1392 -405 2126 -259 431 86 913 297 1273 556 586
422 990 966 1236 1663 87 246 147 546 171 844 36 459 -36 961 -202 1406 -47
126 -190 437 -206 450 -4 3 -18 27 -32 55 -37 74 -208 328 -286 424 -564 699
-1357 1140 -2240 1246 -155 19 -510 27 -649 15z m630 -295 c662 -85 1163 -302
1665 -719 310 -258 572 -591 760 -966 288 -575 384 -1228 275 -1876 -107 -632
-397 -1192 -862 -1661 -232 -234 -469 -410 -747 -554 -418 -216 -794 -319
-1285 -350 -441 -29 -969 58 -1377 226 -293 120 -632 331 -861 534 -501 445
-849 1020 -982 1624 -126 569 -97 1144 85 1684 176 523 527 1029 948 1370 510
412 1105 647 1781 703 146 12 451 4 600 -15z m2633 -4259 c-7 -8 -15 -12 -17
-11 -5 6 10 25 20 25 5 0 4 -6 -3 -14z"/>
<path d="M2465 5709 c-325 -29 -593 -99 -815 -212 -277 -143 -493 -416 -540
-683 -18 -103 -9 -282 19 -364 49 -144 157 -279 273 -340 156 -84 357 -29 424
114 70 149 -31 318 -191 319 -58 1 -123 -29 -152 -69 l-19 -26 -18 27 c-31 47
-46 106 -46 179 0 86 17 153 60 237 138 275 405 432 857 505 152 25 665 31
860 10 353 -37 522 -84 707 -193 102 -60 265 -221 319 -313 173 -298 169 -664
-9 -927 -127 -188 -324 -310 -583 -363 -105 -21 -420 -45 -454 -34 -10 3 -22
17 -28 31 -5 14 -9 345 -9 817 l0 793 -23 34 c-46 69 -143 87 -209 39 -34 -25
-30 -25 -95 6 -64 32 -114 29 -174 -10 l-39 -26 -42 27 c-83 54 -189 29 -228
-52 -20 -41 -20 -68 -20 -1894 0 -1710 1 -1856 17 -1888 31 -67 123 -95 174
-54 l24 19 5 1841 c5 1700 6 1842 22 1857 25 25 64 11 77 -28 8 -23 11 -536
11 -1846 l-1 -1815 22 -24 c32 -33 106 -33 137 0 l22 23 0 903 c0 603 3 909
10 922 7 13 21 19 44 19 29 0 36 -5 45 -32 9 -24 11 -281 10 -923 l-1 -889 27
-23 c46 -40 137 -23 167 30 10 17 14 216 18 919 4 691 8 900 17 909 17 17 300
-3 446 -31 484 -94 777 -411 804 -870 24 -418 -177 -777 -532 -949 -155 -76
-305 -111 -560 -132 -172 -15 -645 -6 -791 15 -385 55 -674 203 -817 418 -63
94 -97 185 -97 256 0 63 16 87 51 73 76 -28 179 44 210 147 27 93 -30 212
-126 261 -68 35 -179 36 -243 3 -95 -50 -157 -129 -194 -245 -28 -89 -28 -263
1 -372 43 -163 144 -328 272 -450 227 -213 529 -332 989 -390 173 -22 587 -30
785 -16 607 45 1126 228 1418 501 193 180 321 421 358 669 18 128 7 333 -25
450 -86 310 -290 551 -580 686 -140 65 -310 114 -476 137 -14 2 20 12 75 22
259 47 465 149 630 311 184 180 271 375 282 633 12 259 -57 473 -224 690 -267
349 -805 571 -1528 632 -143 12 -658 11 -800 -1z m1981 -539 c160 -121 281
-294 335 -480 33 -115 38 -318 10 -432 -58 -243 -238 -460 -469 -566 -99 -45
-172 -48 -84 -3 21 11 74 46 118 79 325 243 448 564 348 908 -58 202 -170 356
-399 551 l-50 43 70 -31 c39 -17 93 -48 121 -69z m-1569 -48 c6 -4 17 -20 22
-35 12 -32 15 -1404 3 -1472 -6 -35 -11 -40 -37 -43 -64 -5 -60 -57 -60 771 0
624 2 757 14 770 14 18 38 22 58 9z m1636 -334 c77 -103 108 -346 66 -512 -11
-45 -28 -57 -54 -38 -6 4 -10 81 -11 192 0 161 -3 195 -23 265 -13 44 -25 90
-28 103 -8 34 22 28 50 -10z m107 -1784 c134 -105 226 -265 251 -438 11 -83 6
-106 -26 -106 -27 0 -29 4 -49 110 -31 162 -103 294 -239 437 -92 97 -92 97
-42 68 28 -15 75 -48 105 -71z m-68 -221 c58 -66 116 -262 125 -418 5 -95 -9
-225 -35 -319 -10 -37 -39 -57 -51 -37 -5 8 -7 101 -4 206 7 216 -3 304 -48
454 -16 51 -29 102 -29 112 0 24 22 24 42 2z m312 -599 c46 -46 -21 -279 -125
-431 -42 -61 -150 -170 -210 -211 -57 -38 -159 -92 -176 -92 -33 0 -15 23 65
82 204 153 350 364 387 563 22 116 26 122 59 89z"/>
<path d="M826 3625 c-149 -53 -183 -262 -60 -364 70 -57 152 -65 235 -23 72
36 111 92 117 167 13 162 -137 276 -292 220z m116 -162 c26 -24 23 -69 -7 -89
-31 -20 -61 -11 -79 24 -30 59 37 110 86 65z"/>
<path d="M5762 3627 c-162 -59 -192 -268 -54 -374 137 -104 342 -2 342 171 0
151 -146 254 -288 203z m108 -155 c14 -11 23 -29 23 -47 0 -30 -32 -65 -59
-65 -22 0 -54 38 -54 63 0 34 26 62 61 66 4 1 17 -7 29 -17z"/>
<path d="M1726 3478 c-32 -46 -10 -98 42 -98 56 0 84 74 40 104 -32 22 -64 20
-82 -6z"/>
<path d="M4925 3475 c-29 -28 -31 -42 -9 -73 19 -27 64 -29 87 -4 24 26 21 68
-5 86 -31 22 -45 20 -73 -9z"/>
</g>
</svg>
