<svg width="14" height="23" viewBox="0 0 14 23" fill="none" xmlns="http://www.w3.org/2000/svg">
<path d="M10.0755 3.60011C9.65672 3.0478 9.09178 2.71533 8.38064 2.6027C7.66951 2.49007 7.06692 2.58699 6.5729 2.89348C6.70375 3.21795 6.73163 3.61723 6.65654 4.09132C6.58145 4.56541 6.36603 4.96665 6.01028 5.29504C5.65766 5.60368 5.19492 5.71263 4.62206 5.6219C3.69363 5.47485 3.31702 4.84822 3.49223 3.74201C3.67056 2.61605 4.28232 1.82197 5.32749 1.35978C6.37266 0.897588 7.50761 0.763483 8.73234 0.957461C9.97683 1.15457 11.0532 1.70979 11.9615 2.62312C12.8698 3.53646 13.2207 4.645 13.0143 5.94875C12.8171 7.19324 12.0659 8.22847 10.7607 9.05445C10.2209 9.39419 9.67277 9.72249 9.11635 10.0393C7.82671 10.7666 7.1115 11.5746 6.97071 12.4635C6.83304 13.3327 7.01721 14.1516 7.5232 14.9202C6.92611 15.4939 6.26574 15.7639 5.54209 15.7303C5.01045 14.2286 4.82129 12.9938 4.97459 12.0259C5.13103 11.0382 5.83177 10.0659 7.07681 9.10884C7.26299 8.95608 7.61924 8.68852 8.14553 8.30614C8.69471 7.90714 9.08684 7.60476 9.32192 7.399C10.0501 6.7651 10.4673 6.11233 10.5737 5.44071C10.6801 4.76908 10.514 4.15555 10.0755 3.60011ZM7.60989 19.5508C7.51603 20.1434 7.26003 20.6091 6.84188 20.9478C6.42374 21.2866 5.84923 21.3981 5.11834 21.2823C3.99237 21.104 3.52012 20.442 3.70159 19.2963C3.92685 17.874 4.7605 17.2771 6.20252 17.5054C7.32849 17.6838 7.79761 18.3656 7.60989 19.5508Z" fill="white"/>
</svg>
