<svg width="12" height="11" viewBox="0 0 12 11" fill="none" xmlns="http://www.w3.org/2000/svg">
<path d="M4.9065 7.50766L4.5 8.93066L4.0935 7.50766C3.98844 7.14009 3.79145 6.80535 3.52113 6.53503C3.25081 6.26471 2.91607 6.06773 2.5485 5.96266L1.125 5.55566L2.548 5.14916C2.91557 5.0441 3.25031 4.84711 3.52063 4.57679C3.79095 4.30647 3.98794 3.97173 4.093 3.60416L4.5 2.18066L4.9065 3.60366C5.01156 3.97123 5.20855 4.30597 5.47887 4.57629C5.74919 4.84661 6.08393 5.0436 6.4515 5.14866L7.875 5.55566L6.452 5.96216C6.08443 6.06723 5.74969 6.26421 5.47937 6.53453C5.20905 6.80485 5.01206 7.13959 4.907 7.50716L4.9065 7.50766ZM9.1295 3.91316L9 4.43066L8.8705 3.91316C8.79637 3.61646 8.64301 3.34547 8.4268 3.12918C8.2106 2.91288 7.93968 2.75941 7.643 2.68516L7.125 2.55566L7.643 2.42616C7.93968 2.35192 8.2106 2.19844 8.4268 1.98215C8.64301 1.76585 8.79637 1.49487 8.8705 1.19816L9 0.680664L9.1295 1.19816C9.20367 1.49493 9.3571 1.76596 9.57341 1.98226C9.78971 2.19856 10.0607 2.352 10.3575 2.42616L10.875 2.55566L10.3575 2.68516C10.0607 2.75933 9.78971 2.91277 9.57341 3.12907C9.3571 3.34537 9.20367 3.6164 9.1295 3.91316ZM8.447 9.83916L8.25 10.4307L8.053 9.83916C7.99777 9.67348 7.90472 9.52293 7.78123 9.39943C7.65774 9.27594 7.50718 9.18289 7.3415 9.12766L6.75 8.93066L7.3415 8.73366C7.50718 8.67843 7.65774 8.58539 7.78123 8.46189C7.90472 8.3384 7.99777 8.18785 8.053 8.02216L8.25 7.43066L8.447 8.02216C8.50223 8.18785 8.59528 8.3384 8.71877 8.46189C8.84226 8.58539 8.99282 8.67843 9.1585 8.73366L9.75 8.93066L9.1585 9.12766C8.99282 9.18289 8.84226 9.27594 8.71877 9.39943C8.59528 9.52293 8.50223 9.67348 8.447 9.83916Z" stroke="white" stroke-width="0.6" stroke-linecap="round" stroke-linejoin="round"/>
</svg>
