<?xml version="1.0" standalone="no"?>
<!DOCTYPE svg PUBLIC "-//W3C//DTD SVG 20010904//EN"
 "http://www.w3.org/TR/2001/REC-SVG-20010904/DTD/svg10.dtd">
<svg version="1.0" xmlns="http://www.w3.org/2000/svg"
 width="700.000000pt" height="700.000000pt" viewBox="0 0 700.000000 700.000000"
 preserveAspectRatio="xMidYMid meet">
<metadata>
Created by potrace 1.14, written by Peter Selinger 2001-2017
</metadata>
<g transform="translate(0.000000,700.000000) scale(0.100000,-0.100000)"
fill="#000000" stroke="none">
<path d="M3297 6994 c-1 -1 -40 -4 -87 -8 -127 -10 -370 -46 -435 -66 -16 -5
-66 -16 -110 -26 -313 -67 -784 -270 -1080 -467 -71 -47 -273 -195 -295 -217
-9 -8 -40 -35 -70 -60 -92 -75 -351 -339 -436 -445 -281 -352 -486 -736 -623
-1170 -35 -113 -86 -308 -97 -370 -1 -11 -7 -47 -13 -80 -6 -33 -13 -80 -16
-105 -3 -25 -7 -61 -10 -80 -16 -123 -23 -528 -11 -670 8 -95 16 -171 21 -205
3 -16 7 -48 10 -70 80 -568 374 -1216 768 -1692 84 -101 300 -323 397 -407
336 -291 760 -531 1195 -675 135 -45 265 -81 310 -88 17 -2 41 -8 55 -13 14
-4 43 -11 65 -14 22 -3 52 -8 68 -11 15 -3 39 -7 55 -10 15 -3 50 -8 77 -11
28 -3 55 -7 62 -9 72 -23 714 -24 784 -1 8 3 41 7 74 11 33 3 71 8 85 10 14 2
48 6 75 10 28 4 53 9 56 11 3 2 21 6 40 9 228 39 617 178 887 317 258 133 437
253 683 458 75 62 303 290 376 375 370 431 649 1000 764 1553 20 101 42 227
54 322 26 210 26 597 0 800 -1 14 -6 49 -10 79 -4 30 -9 63 -11 75 -16 81 -36
185 -40 206 -10 51 -66 253 -95 343 -42 128 -140 357 -220 514 -80 157 -306
505 -380 583 -8 9 -39 45 -69 80 -68 81 -261 276 -357 359 -164 144 -367 287
-575 406 -82 47 -286 148 -353 175 -11 4 -36 15 -55 23 -159 69 -471 160 -678
196 -101 18 -139 24 -232 37 -81 10 -593 26 -603 18z m447 -298 c62 -4 124 -9
137 -11 13 -3 41 -7 64 -10 60 -9 97 -15 125 -20 14 -3 41 -7 60 -10 252 -42
583 -151 825 -272 974 -489 1626 -1398 1760 -2458 26 -203 26 -615 1 -775 -2
-14 -7 -47 -11 -75 -3 -27 -17 -107 -31 -178 -94 -476 -301 -928 -607 -1321
-39 -50 -73 -93 -76 -96 -3 -3 -26 -27 -50 -55 -290 -329 -599 -569 -966 -753
-160 -80 -378 -172 -440 -186 -5 -1 -41 -12 -80 -24 -281 -85 -606 -133 -925
-135 -105 -1 -292 8 -365 18 -16 2 -52 6 -80 9 -27 4 -61 8 -75 10 -14 3 -41
7 -60 10 -30 4 -122 22 -220 43 -62 13 -273 75 -345 101 -328 120 -651 304
-935 531 -105 84 -324 297 -416 406 -511 602 -766 1290 -768 2065 0 211 11
342 49 585 10 63 63 278 86 352 99 315 212 552 395 828 340 512 770 874 1358
1145 206 95 573 206 776 235 24 4 47 8 50 10 3 1 36 6 73 10 37 3 78 8 90 11
12 2 60 7 107 10 47 4 86 7 87 8 5 4 300 -2 407 -8z m2886 -4430 c0 -3 -4 -8
-10 -11 -5 -3 -10 -1 -10 4 0 6 5 11 10 11 6 0 10 -2 10 -4z"/>
<path d="M2598 5935 c-2 -2 -34 -6 -73 -10 -379 -35 -721 -143 -938 -295 -224
-156 -383 -384 -431 -620 -12 -59 -13 -217 -2 -304 21 -164 167 -371 310 -440
132 -63 274 -46 374 44 78 71 101 197 54 287 -67 129 -248 160 -341 59 -31
-33 -37 -33 -57 7 -107 203 17 523 273 709 180 131 486 226 788 246 215 13
730 6 820 -12 11 -2 47 -7 80 -10 33 -4 67 -9 75 -11 8 -2 33 -6 55 -10 170
-24 389 -113 515 -208 67 -51 201 -185 239 -241 63 -92 116 -221 142 -351 13
-63 17 -258 6 -310 -3 -16 -9 -43 -12 -59 -64 -311 -314 -552 -665 -641 -85
-22 -87 -23 -167 -30 -37 -4 -81 -9 -98 -11 -88 -10 -262 -14 -274 -5 -8 5
-17 33 -21 61 -4 29 -8 408 -9 844 -2 872 1 821 -64 870 -39 29 -145 30 -176
2 -23 -21 -45 -19 -130 12 -61 23 -100 17 -160 -24 -31 -21 -37 -22 -51 -9
-26 23 -87 45 -126 45 -49 0 -110 -36 -128 -75 -9 -18 -18 -68 -21 -111 -5
-96 -6 -3508 0 -3686 2 -70 8 -136 14 -147 32 -59 132 -86 177 -47 l26 22 4
1554 c4 1706 9 2221 19 2262 9 34 30 42 61 22 16 -11 24 -26 25 -48 6 -175 8
-829 9 -2178 l0 -1607 22 -21 c12 -11 30 -23 41 -26 30 -10 82 5 105 29 l21
23 1 937 c1 921 2 939 21 958 20 20 51 19 74 -3 6 -6 11 -340 13 -951 2 -713
6 -945 15 -956 52 -63 177 -37 193 40 4 24 9 372 23 1759 1 52 5 101 10 109 9
13 113 17 216 7 109 -11 166 -17 187 -21 13 -3 49 -10 81 -15 159 -29 348
-115 473 -214 294 -232 410 -645 299 -1061 -22 -85 -104 -248 -163 -325 -168
-222 -447 -367 -777 -405 -27 -3 -84 -10 -125 -15 -74 -8 -688 -5 -765 4 -255
31 -411 73 -591 162 -121 60 -232 144 -300 228 -82 100 -145 244 -142 326 1
59 11 69 71 67 112 -2 207 98 207 218 0 44 -43 128 -86 169 -73 69 -203 87
-301 42 -232 -108 -296 -462 -146 -796 42 -92 129 -215 211 -296 205 -203 500
-334 897 -399 55 -9 110 -18 121 -20 119 -19 757 -28 919 -12 602 59 1112 250
1400 524 192 182 335 455 363 695 9 70 8 260 -2 333 -35 277 -211 566 -447
732 -141 99 -377 195 -559 227 -107 20 -115 22 -95 29 11 3 54 13 95 22 318
66 556 212 737 453 78 104 140 255 162 397 14 94 12 293 -5 376 -59 284 -236
544 -494 721 -184 127 -485 253 -750 313 -37 8 -168 34 -195 39 -74 13 -165
25 -215 31 -30 3 -71 8 -90 11 -34 6 -847 14 -852 9z m1992 -552 c183 -120
323 -318 381 -540 20 -80 29 -293 15 -373 -43 -236 -195 -454 -409 -586 -76
-47 -164 -84 -200 -84 -15 0 5 18 63 56 338 225 496 495 476 814 -17 281 -138
487 -441 756 l-50 45 50 -23 c28 -12 79 -41 115 -65z m-1600 -71 c20 -16 22
-28 25 -142 6 -187 5 -1327 -1 -1389 -6 -67 -8 -71 -45 -71 -23 0 -32 6 -41
28 -13 29 -20 1409 -8 1517 8 73 29 90 70 57z m1709 -359 c50 -84 79 -225 74
-363 -5 -141 -32 -220 -67 -191 -10 8 -14 41 -15 114 -4 230 -10 303 -34 392
-14 50 -23 93 -20 98 7 11 43 -18 62 -50z m94 -1831 c162 -123 283 -368 268
-543 -1 -21 -37 -31 -50 -15 -6 7 -19 54 -31 106 -37 167 -111 307 -229 433
-79 84 -91 98 -91 103 0 9 69 -35 133 -84z m-66 -234 c35 -39 84 -157 99 -238
3 -14 7 -31 9 -38 19 -53 26 -243 12 -357 -13 -117 -48 -197 -75 -171 -4 4 -7
112 -8 239 -2 246 -6 287 -53 462 -16 61 -27 113 -24 118 7 12 19 8 40 -15z
m334 -638 c8 -75 -6 -144 -49 -258 -74 -194 -273 -397 -467 -478 -64 -26 -40
9 60 90 232 189 356 387 401 640 3 16 7 33 10 37 7 12 44 -13 45 -31z"/>
<path d="M880 3771 c-99 -30 -154 -101 -159 -202 -5 -127 90 -232 211 -232
171 0 278 169 203 320 -49 97 -154 144 -255 114z m100 -176 c21 -26 20 -56 -5
-81 -13 -13 -29 -24 -35 -24 -18 0 -60 48 -60 67 1 50 68 76 100 38z"/>
<path d="M5985 3767 c-88 -34 -145 -115 -145 -205 0 -125 94 -223 214 -224
156 -1 264 143 217 291 -35 112 -177 180 -286 138z m115 -167 c26 -26 25 -51
-1 -84 -24 -30 -50 -33 -71 -8 -24 27 -29 52 -16 75 22 42 56 49 88 17z"/>
<path d="M1824 3630 c-53 -21 -63 -86 -18 -111 34 -18 76 -2 88 34 16 45 -28
93 -70 77z"/>
<path d="M5111 3604 c-26 -33 -26 -45 -1 -72 38 -41 100 -16 100 40 0 58 -63
78 -99 32z"/>
</g>
</svg>
